<svg width="214" height="190" viewBox="0 0 214 190" fill="none" xmlns="http://www.w3.org/2000/svg">
<path d="M51.6888 92.8439C28.5104 51.2107 58.6121 0 106.262 0C154.245 0 184.309 51.8564 160.468 93.4968L110.78 180.278C108.46 184.331 102.603 184.296 100.331 180.215L51.6888 92.8439Z" fill="#DCA26D"/>
<circle cx="107" cy="63" r="50" fill="white"/>
<path d="M71 77.7616C71 82.9177 75.8265 87.0983 81.7801 87.0983H127.476C133.43 87.0983 138.257 82.9175 138.257 77.7616V77.6426H71V77.7616Z" fill="#945531"/>
<path d="M138.711 42.922C136.688 40.8943 133.861 39.633 130.77 39.633C130.438 39.633 129.548 39.633 128.515 39.633V37.9004H80.3379V53.9047C80.3379 61.7962 83.818 68.8676 89.3213 73.688H119.531C123.175 70.4967 125.923 66.3161 127.37 61.565C128.445 61.9062 129.588 62.0945 130.77 62.0935C133.861 62.0945 136.688 60.8319 138.711 58.8043C140.739 56.7811 142.002 53.9543 142 50.8633C142.002 47.7722 140.739 44.9453 138.711 42.922ZM134.45 54.5418C133.498 55.4906 132.217 56.0677 130.77 56.0677C129.935 56.0677 129.156 55.8684 128.462 55.5238C128.494 54.9866 128.515 54.4494 128.515 53.9045V45.6585C129.548 45.6585 130.438 45.6585 130.77 45.6585C132.217 45.6619 133.498 46.2353 134.45 47.1842C135.397 48.1352 135.973 49.4165 135.974 50.863C135.973 52.3095 135.397 53.5931 134.45 54.5418Z" fill="#945531"/>
</svg>
