<svg width="214" height="190" viewBox="0 0 214 190" fill="none" xmlns="http://www.w3.org/2000/svg">
<path d="M51.6888 92.8439C28.5104 51.2107 58.6121 0 106.262 0C154.245 0 184.309 51.8564 160.468 93.4968L110.78 180.278C108.46 184.331 102.603 184.296 100.331 180.215L51.6888 92.8439Z" fill="#ED2929"/>
<circle cx="107" cy="63" r="50" fill="white"/>
<path d="M87.6602 93.7146V43.5053C89.7048 42.2598 90.7712 40.3061 90.7712 37.9941C90.7712 34.5276 87.9275 31.5957 84.4609 31.5957C80.9062 31.5957 78.0625 34.5276 78.0625 37.9941C78.0625 40.3061 79.3081 42.2598 81.3499 43.5053V93.7146C81.3499 94.6047 81.9727 95.3156 82.7718 95.3156H86.0591C86.9492 95.3156 87.6602 94.6047 87.6602 93.7146ZM90.7712 46.3491V75.142C90.7712 76.8312 91.6613 77.5422 92.7277 76.7431C94.7724 75.233 96.5497 74.0756 98.1479 73.2765C101.435 71.7665 103.747 71.0556 105.88 70.9646C108.547 70.9646 110.589 71.4992 112.634 72.4746C114.59 73.3647 116.368 74.7866 118.41 76.1175C119.564 76.8284 120.986 77.272 122.587 77.363C125.255 77.5422 128.986 76.9194 133.339 73.3647C134.318 72.5656 135.117 70.521 135.117 69.0109V40.218C135.117 38.5288 134.406 37.906 133.339 38.7079C131.118 40.3971 129.074 41.5517 127.296 42.0863C123.653 43.0645 120.81 42.8854 118.41 41.4635C116.365 40.1298 114.588 38.7079 112.634 37.8207C110.589 36.8424 108.545 36.3106 105.88 36.3106C104.902 36.3106 103.659 36.578 102.325 36.9334C99.9252 37.6444 96.8142 39.1544 92.7277 41.9981C91.6613 42.7972 90.7712 44.7537 90.7712 46.3519V46.3491Z" fill="#740000"/>
</svg>
