<svg width="214" height="190" viewBox="0 0 214 190" fill="none" xmlns="http://www.w3.org/2000/svg">
<path d="M51.6888 92.8439C28.5104 51.2107 58.6121 0 106.262 0C154.245 0 184.309 51.8564 160.468 93.4968L110.78 180.278C108.46 184.331 102.603 184.296 100.331 180.215L51.6888 92.8439Z" fill="#707FB3"/>
<circle cx="107" cy="63" r="50" fill="white"/>
<g clip-path="url(#clip0_605_1292)">
<path d="M92.0492 42.9443C84.5408 42.9443 84.4376 42.9443 78.1918 42.9443C74.8468 42.9443 72.1121 45.6656 72.0953 49.0101L72 67.9364C71.9929 69.3592 73.1405 70.5183 74.5631 70.5256C74.5675 70.5256 74.572 70.5256 74.5765 70.5256C75.9933 70.5256 77.145 69.3805 77.1524 67.9625L77.2476 49.0362C77.2476 49.0341 77.2476 49.032 77.2476 49.0298C77.2509 48.7489 77.4805 48.5231 77.7615 48.5248C78.0425 48.5264 78.2694 48.7549 78.2694 49.0358L78.2705 92.3425C78.2705 94.0498 79.6546 95.4339 81.362 95.4339C83.0693 95.4339 84.4535 94.0498 84.4535 92.3425V67.6327H85.7883V92.3425C85.7883 94.0498 87.1723 95.4338 88.8796 95.4338C90.5869 95.4338 91.971 94.0498 91.971 92.3425C91.971 51.478 91.9163 74.8471 91.9149 49.0736C91.9149 48.7836 92.1438 48.5454 92.4336 48.5341C92.7235 48.5227 92.9706 48.742 92.9931 49.0311V49.0313L92.9756 67.9469C92.9742 69.3696 94.1266 70.5242 95.5493 70.5256C95.5502 70.5256 95.5508 70.5256 95.5518 70.5256C96.9732 70.5256 98.1266 69.3736 98.1278 67.9518L98.1453 49.0257C98.1456 49.0204 98.1456 49.0155 98.1454 49.0101C98.1286 45.6656 95.3938 42.9443 92.0492 42.9443Z" fill="black"/>
<path d="M85.1207 41.2423C88.069 41.2423 90.4591 38.8522 90.4591 35.9039C90.4591 32.9555 88.069 30.5654 85.1207 30.5654C82.1723 30.5654 79.7822 32.9555 79.7822 35.9039C79.7822 38.8522 82.1723 41.2423 85.1207 41.2423Z" fill="black"/>
<path d="M141.855 63.9363C141.808 63.8015 137.123 50.4399 136.386 48.2949C135.2 44.8423 133.21 43.0918 130.473 43.0918C126.642 43.0918 125.39 43.0918 121.566 43.0918C118.829 43.0918 116.839 44.8425 115.653 48.2949C114.916 50.4397 110.231 63.8017 110.184 63.9363C109.716 65.2691 110.418 66.7286 111.751 67.1959C113.085 67.6634 114.544 66.96 115.011 65.6288C115.162 65.1976 117.98 57.3665 119.553 52.8608C119.388 54.2058 119.862 51.4146 115.897 71.8857C115.727 72.765 116.404 73.5782 117.292 73.5782C117.843 73.5782 118.503 73.5782 119.243 73.5782V92.1279C119.243 93.8227 120.617 95.1967 122.312 95.1967C124.007 95.1967 125.381 93.8228 125.381 92.1279V73.5779C125.822 73.5779 126.265 73.5779 126.706 73.5779V92.1279C126.706 93.8227 128.08 95.1967 129.775 95.1967C131.47 95.1967 132.843 93.8228 132.843 92.1279V73.5779C133.583 73.5779 134.244 73.5779 134.795 73.5779C135.686 73.5779 136.36 72.7641 136.189 71.8854C132.261 51.6006 132.694 53.9564 132.56 52.8605C134.145 57.4011 136.88 65.204 137.029 65.6285C137.497 66.9623 138.957 67.6626 140.288 67.1956C141.621 66.7283 142.323 65.2691 141.855 63.9363Z" fill="black"/>
<path d="M126.042 41.4031C128.97 41.4031 131.343 39.0301 131.343 36.1029C131.343 33.1757 128.97 30.8027 126.042 30.8027C123.115 30.8027 120.742 33.1757 120.742 36.1029C120.742 39.0301 123.115 41.4031 126.042 41.4031Z" fill="black"/>
<path d="M104.779 34.0059C103.69 34.0059 102.807 34.8891 102.807 35.9787V90.0212C102.807 91.1107 103.69 91.9939 104.779 91.9939C105.869 91.9939 106.752 91.1108 106.752 90.0212V35.9787C106.752 34.8891 105.869 34.0059 104.779 34.0059Z" fill="black"/>
</g>
<defs>
<clipPath id="clip0_605_1292">
<rect width="70" height="70" fill="white" transform="translate(72 28)"/>
</clipPath>
</defs>
</svg>
