<svg width="214" height="190" viewBox="0 0 214 190" fill="none" xmlns="http://www.w3.org/2000/svg">
<path d="M51.6888 92.8439C28.5104 51.2107 58.6121 0 106.262 0C154.245 0 184.309 51.8564 160.468 93.4968L110.78 180.278C108.46 184.331 102.603 184.296 100.331 180.215L51.6888 92.8439Z" fill="#799BDD"/>
<circle cx="107" cy="63" r="50" fill="white"/>
<path d="M85.0885 25L80.0401 52.8667C79.301 56.9453 89.0338 58.8504 88.8748 63L87.6127 95.9333C87.4188 100.996 92.6611 101 92.6611 101C92.6611 101 97.9034 100.996 97.7095 95.9333L96.4474 63C96.2889 58.8575 105.198 57.0173 105.282 52.8667L100.234 25H97.7095L98.9716 45.2667L95.1853 47.8L93.9232 25H91.399L90.1369 47.8L86.3506 45.2667L87.6127 25H85.0885ZM128 25C124.282 25 118.084 28.3182 115.606 33.2926C113.54 37.0237 112.855 45.3589 112.855 50.3333V63C112.855 67.1455 118.362 68.0667 120.427 68.0667L117.903 95.9333C117.446 100.979 122.952 101 122.952 101C122.952 101 128 101 128 95.9333V25Z" fill="#2C466D"/>
</svg>
