<svg width="214" height="190" viewBox="0 0 214 190" fill="none" xmlns="http://www.w3.org/2000/svg">
<path d="M51.6888 92.8439C28.5104 51.2107 58.6121 0 106.262 0C154.245 0 184.309 51.8564 160.468 93.4968L110.78 180.278C108.46 184.331 102.603 184.296 100.331 180.215L51.6888 92.8439Z" fill="#BA7F9B"/>
<circle cx="107" cy="63" r="50" fill="white"/>
<path d="M89.4784 44.864C92.1977 44.864 94.4021 42.6596 94.4021 39.9403C94.4021 37.221 92.1977 35.0166 89.4784 35.0166C86.7591 35.0166 84.5547 37.221 84.5547 39.9403C84.5547 42.6596 86.7591 44.864 89.4784 44.864Z" fill="#792E37"/>
<path d="M124.992 43.307C127.571 43.307 129.662 41.2159 129.662 38.6364C129.662 36.0569 127.571 33.9658 124.992 33.9658C122.412 33.9658 120.321 36.0569 120.321 38.6364C120.321 41.2159 122.412 43.307 124.992 43.307Z" fill="#792E37"/>
<path d="M142.867 34.3263C141.749 33.6395 140.286 33.9893 139.6 35.1076L134.948 42.6823L128.001 45.0806L122.063 45.1955C121.675 45.2031 121.288 45.2382 120.906 45.3007L114.949 46.274L110.468 43.834C109.887 42.7597 108.57 42.2916 107.43 42.7893L99.2293 46.3743C90.8501 46.3743 87.0925 46.3072 86.3087 46.3484L78.4091 43.6416L73.0156 38.4969C72.0661 37.5909 70.5621 37.6269 69.6568 38.576C68.751 39.5255 68.7866 41.0292 69.7359 41.9349L75.5063 47.4392C75.7547 47.6761 76.0513 47.8565 76.3762 47.9678L83.1608 50.2924V67.9109L79.1316 87.6109C78.8161 89.1534 79.8109 90.6597 81.3533 90.9752C82.896 91.2908 84.4022 90.2958 84.7177 88.7534L88.9654 67.9851H89.6486L93.895 75.9101L96.1596 88.6798C96.4354 90.2362 97.9213 91.2638 99.4644 90.989C101.015 90.7141 102.049 89.2345 101.774 87.6842L99.4298 74.4665C99.3772 74.1697 99.2779 73.8834 99.1356 73.6178L95.7446 67.2891V51.1253H99.7259C100.053 51.1253 100.377 51.0575 100.678 50.9264L107.822 47.803L113.392 50.8361C113.839 51.0797 114.37 51.1821 114.911 51.0943L118.96 50.4328L115.055 70.1643C114.982 70.532 115.077 70.9131 115.315 71.2029C115.553 71.4926 115.908 71.6607 116.283 71.6607C116.592 71.6607 116.945 71.6607 117.327 71.6607L112.709 87.5751C112.293 89.0093 113.118 90.5095 114.553 90.9258C115.988 91.342 117.488 90.5158 117.903 89.0824L122.959 71.6609C123.861 71.6609 124.785 71.6609 125.701 71.6609V88.3289C125.701 89.8224 126.912 91.0332 128.406 91.0332C129.899 91.0332 131.11 89.8224 131.11 88.3289V71.6609C132.123 71.6609 133.011 71.6609 133.701 71.6609C134.076 71.6609 134.431 71.4918 134.669 71.2022C134.906 70.9126 135.002 70.532 134.929 70.1644L130.77 49.1512L137.302 46.8958C137.822 46.7164 138.264 46.3622 138.551 45.8935L143.648 37.5939C144.335 36.476 143.985 35.013 142.867 34.3263Z" fill="#792E37"/>
</svg>
